<svg width="1600" height="1200" viewBox="0 0 1600 1200" fill="none" xmlns="http://www.w3.org/2000/svg">
  <rect width="1600" height="1200" fill="#ECE2D3"/>
  <circle cx="1240" cy="245" r="185" fill="#D09A6A" fill-opacity="0.34"/>
  <circle cx="280" cy="220" r="120" fill="#F9F2EA" fill-opacity="0.88"/>
  <path d="M430 1030C510 822 642 694 810 694C978 694 1090 822 1170 1030H430Z" fill="#F9F3EC"/>
  <path d="M624 494L709 332L772 524C719 563 658 557 624 494Z" fill="#B57E55"/>
  <path d="M996 494L911 332L848 524C901 563 962 557 996 494Z" fill="#B57E55"/>
  <ellipse cx="810" cy="604" rx="274" ry="244" fill="#B57E55"/>
  <ellipse cx="810" cy="646" rx="198" ry="175" fill="#F7EFE5"/>
  <ellipse cx="708" cy="604" rx="33" ry="41" fill="#261D18"/>
  <ellipse cx="912" cy="604" rx="33" ry="41" fill="#261D18"/>
  <path d="M810 628L850 684H770L810 628Z" fill="#261D18"/>
  <path d="M738 713C775 748 845 748 882 713" stroke="#7A4738" stroke-width="18" stroke-linecap="round"/>
  <text x="800" y="1070" fill="#584339" font-family="Georgia, serif" font-size="78" text-anchor="middle">Akita Inu</text>
</svg>
