<svg width="1600" height="1200" viewBox="0 0 1600 1200" fill="none" xmlns="http://www.w3.org/2000/svg">
  <rect width="1600" height="1200" fill="#F1E2D2"/>
  <circle cx="1215" cy="230" r="185" fill="#C48A53" fill-opacity="0.25"/>
  <circle cx="290" cy="230" r="130" fill="#FFF7EE" fill-opacity="0.88"/>
  <path d="M420 1030C500 834 636 694 809 694C982 694 1115 834 1195 1030H420Z" fill="#FCF4EA"/>
  <path d="M634 530L707 364L769 540C720 571 666 582 634 530Z" fill="#B06C34"/>
  <path d="M984 530L911 364L849 540C898 571 952 582 984 530Z" fill="#B06C34"/>
  <ellipse cx="809" cy="626" rx="286" ry="253" fill="#B06C34"/>
  <ellipse cx="809" cy="658" rx="214" ry="190" fill="#E1A061"/>
  <ellipse cx="809" cy="676" rx="166" ry="150" fill="#F5E6D4"/>
  <ellipse cx="719" cy="620" rx="31" ry="39" fill="#241A14"/>
  <ellipse cx="899" cy="620" rx="31" ry="39" fill="#241A14"/>
  <path d="M809 648L848 701H770L809 648Z" fill="#241A14"/>
  <path d="M744 716C777 748 841 748 874 716" stroke="#704938" stroke-width="17" stroke-linecap="round"/>
  <text x="800" y="1070" fill="#684433" font-family="Georgia, serif" font-size="78" text-anchor="middle">Chow Chow</text>
</svg>
