<svg width="1600" height="1200" viewBox="0 0 1600 1200" fill="none" xmlns="http://www.w3.org/2000/svg">
  <rect width="1600" height="1200" fill="#F3E8DD"/>
  <circle cx="1220" cy="260" r="180" fill="#A45B33" fill-opacity="0.22"/>
  <circle cx="300" cy="220" r="120" fill="#FFF7F0" fill-opacity="0.86"/>
  <path d="M470 1025C540 860 661 748 804 748C947 748 1070 860 1138 1025H470Z" fill="#FFF8F1"/>
  <path d="M648 500L732 398L762 560C706 582 671 561 648 500Z" fill="#9B5330"/>
  <path d="M960 500L876 398L846 560C902 582 937 561 960 500Z" fill="#9B5330"/>
  <ellipse cx="804" cy="620" rx="230" ry="210" fill="#9B5330"/>
  <ellipse cx="804" cy="662" rx="166" ry="148" fill="#F6E6D6"/>
  <ellipse cx="720" cy="620" rx="28" ry="36" fill="#291C16"/>
  <ellipse cx="888" cy="620" rx="28" ry="36" fill="#291C16"/>
  <path d="M804 639L840 688H768L804 639Z" fill="#291C16"/>
  <path d="M747 709C775 736 833 736 861 709" stroke="#7C4731" stroke-width="16" stroke-linecap="round"/>
  <text x="800" y="1070" fill="#6E4330" font-family="Georgia, serif" font-size="78" text-anchor="middle">Dachshund</text>
</svg>
