<svg width="1600" height="1200" viewBox="0 0 1600 1200" fill="none" xmlns="http://www.w3.org/2000/svg">
  <rect width="1600" height="1200" fill="#F4E4CE"/>
  <circle cx="1200" cy="250" r="180" fill="#E2B67C" fill-opacity="0.4"/>
  <circle cx="290" cy="210" r="130" fill="#FFF3E2" fill-opacity="0.9"/>
  <path d="M470 1020C540 840 650 720 807 720C964 720 1072 840 1140 1020H470Z" fill="#FFF8EE"/>
  <path d="M616 515L695 385L748 536C708 565 656 577 616 515Z" fill="#C97E45"/>
  <path d="M998 515L919 385L866 536C906 565 958 577 998 515Z" fill="#C97E45"/>
  <ellipse cx="807" cy="617" rx="255" ry="230" fill="#C97E45"/>
  <ellipse cx="807" cy="650" rx="190" ry="168" fill="#FFF8EE"/>
  <ellipse cx="710" cy="606" rx="32" ry="40" fill="#2E241D"/>
  <ellipse cx="904" cy="606" rx="32" ry="40" fill="#2E241D"/>
  <path d="M807 626L847 677H767L807 626Z" fill="#2E241D"/>
  <path d="M736 705C771 742 843 742 878 705" stroke="#8A4B3A" stroke-width="18" stroke-linecap="round"/>
  <text x="800" y="1070" fill="#6A4531" font-family="Georgia, serif" font-size="78" text-anchor="middle">Shiba Inu</text>
</svg>
